<?xml version="1.0" encoding="UTF-8" standalone="no"?>
<svg
   xmlns:dc="http://purl.org/dc/elements/1.1/"
   xmlns:cc="http://creativecommons.org/ns#"
   xmlns:rdf="http://www.w3.org/1999/02/22-rdf-syntax-ns#"
   xmlns:svg="http://www.w3.org/2000/svg"
   xmlns="http://www.w3.org/2000/svg"
   xmlns:sodipodi="http://sodipodi.sourceforge.net/DTD/sodipodi-0.dtd"
   xmlns:inkscape="http://www.inkscape.org/namespaces/inkscape"
   version="1.1"
   id="svg3713"
   width="92.480003"
   height="92.160004"
   viewBox="0 0 92.480003 92.160004"
   sodipodi:docname="logo.svg"
   inkscape:version="1.0.2 (e86c870879, 2021-01-15)">
  <metadata
     id="metadata3719">
    <rdf:RDF>
      <cc:Work
         rdf:about="">
        <dc:format>image/svg+xml</dc:format>
        <dc:type
           rdf:resource="http://purl.org/dc/dcmitype/StillImage" />
        <dc:title></dc:title>
      </cc:Work>
    </rdf:RDF>
  </metadata>
  <defs
     id="defs3717" />
  <sodipodi:namedview
     pagecolor="#ffffff"
     bordercolor="#666666"
     borderopacity="1"
     objecttolerance="10"
     gridtolerance="10"
     guidetolerance="10"
     inkscape:pageopacity="0"
     inkscape:pageshadow="2"
     inkscape:window-width="1920"
     inkscape:window-height="1031"
     id="namedview3715"
     showgrid="false"
     inkscape:zoom="7.2482635"
     inkscape:cx="59.031107"
     inkscape:cy="47.162154"
     inkscape:window-x="0"
     inkscape:window-y="1107"
     inkscape:window-maximized="1"
     inkscape:current-layer="svg3713"
     inkscape:document-rotation="0" />
  <g
     id="g116">
    <path
       style="color:#000000;font-style:normal;font-variant:normal;font-weight:normal;font-stretch:normal;font-size:medium;line-height:normal;font-family:sans-serif;font-variant-ligatures:normal;font-variant-position:normal;font-variant-caps:normal;font-variant-numeric:normal;font-variant-alternates:normal;font-variant-east-asian:normal;font-feature-settings:normal;font-variation-settings:normal;text-indent:0;text-align:start;text-decoration:none;text-decoration-line:none;text-decoration-style:solid;text-decoration-color:#000000;letter-spacing:normal;word-spacing:normal;text-transform:none;writing-mode:lr-tb;direction:ltr;text-orientation:mixed;dominant-baseline:auto;baseline-shift:baseline;text-anchor:start;white-space:normal;shape-padding:0;shape-margin:0;inline-size:0;clip-rule:nonzero;display:inline;overflow:visible;visibility:visible;isolation:auto;mix-blend-mode:normal;color-interpolation:sRGB;color-interpolation-filters:linearRGB;solid-color:#000000;solid-opacity:1;vector-effect:none;fill:#333333;fill-opacity:1;fill-rule:nonzero;stroke-width:0.32;stroke-linecap:butt;stroke-linejoin:miter;stroke-miterlimit:4;stroke-dasharray:none;stroke-dashoffset:0;stroke-opacity:1;color-rendering:auto;image-rendering:auto;shape-rendering:auto;text-rendering:auto;enable-background:accumulate;stop-color:#000000;stop-opacity:1;stroke:none;opacity:1"
       d="m 49.094351,86.889314 -21.599999,0.0607 -1.33,-0.26847 -1.33,-0.268467 -1.23,-0.63977 -1.23,-0.639766 -7.41001,-7.462042 -7.4100197,-7.462039 -0.66998,-1.347251 -0.66999,-1.347251 V 44.449456 21.383959 l 0.67001,-1.347252 0.67,-1.347252 7.2499997,-7.302598 7.24999,-7.3025977 1.5081,-0.776761 1.50809,-0.77676 22.143789,-0.289618 22.14378,-0.289617 1.74768,0.455213 1.74768,0.455212 0.41245,0.233763 0.41244,0.233763 7.39756,7.1588977 7.39755,7.158898 0.34247,0.639902 0.34246,0.639902 -0.21724,1.738795 -0.21725,1.738794 -0.94694,1.078497 -0.94693,1.078497 -1.60359,0.343909 -1.6036,0.343909 h -0.79501 -0.79502 l -4.38923,-4.094091 -4.38924,-4.094091 -0.92315,-0.705909 -0.92316,-0.705909 H 48.395311 25.382572 l -0.87418,0.452057 -0.87418,0.452057 -1.51449,1.619112 -1.51449,1.619111 -0.31544,0.829664 -0.31544,0.829663 v 4.629806 4.629807 l 0.78795,1.50936 0.78794,1.509364 4.05963,4.32 4.05964,4.32 0.83242,1.76 0.83242,1.76 0.16,10.880001 0.16,10.88 0.72351,1.163446 0.72351,1.16345 1.67649,1.147767 1.67649,1.147766 1.40024,0.488784 1.40023,0.488787 15.399769,-0.007 15.39976,-0.007 1.35044,-0.613043 1.35043,-0.613046 2.80957,-2.662727 2.80956,-2.662726 1.86541,-1.719345 1.8654,-1.71934 1.84271,0.167091 1.84271,0.167091 1.00647,0.520467 1.00647,0.520464 0.51226,0.990592 0.51225,0.990589 0.18109,1.754554 0.18108,1.754557 -7.96792,7.912192 -7.96793,7.912192 -1.28,0.446826 -1.28,0.446826 -21.6,0.0607 z m 9.12,-20.386903 -10.88,-0.02349 -0.96,-0.330644 -0.96,-0.330643 -3.94217,-3.884083 -3.942179,-3.884096 -0.45782,-0.864109 -0.45783,-0.864109 V 44.449456 32.577673 l 0.45323,-0.864109 0.45323,-0.864109 3.949529,-3.894517 3.94953,-3.894517 0.79724,-0.16628 0.79724,-0.166281 11.12041,-0.153296 11.12041,-0.153296 1.19959,0.32808 1.19959,0.328081 3.92,3.869619 3.92,3.86962 v 1.056394 1.056393 l -0.64,0.640001 -0.64,0.64 h -1.22422 -1.22421 l -0.77579,-0.842023 -0.77578,-0.842022 -1.85661,-1.557978 -1.85661,-1.557978 h -12.10023 -12.10024 l -0.84955,0.668255 -0.84954,0.668254 -0.47361,0.915856 -0.47361,0.915853 0.001,2.335891 10e-4,2.335892 0.59504,0.96 0.59503,0.96 1.97002,2.135885 1.97003,2.135888 0.47374,1.133833 0.47375,1.133837 v 5.425728 5.425726 l 0.79628,0.946326 0.79628,0.946326 1.09208,0.518224 1.09208,0.518228 h 8.21268 8.21267 l 0.69897,-0.361882 0.69896,-0.361882 2.2859,-2.198118 2.28589,-2.198119 h 0.95095 0.95095 l 0.84316,0.663226 0.84315,0.663226 v 1.193168 1.193168 l -3.92,3.869619 -3.92,3.86962 -1.28,0.352201 -1.28,0.352205 -10.88,-0.02349 z"
       id="path40-3" />
  </g>
  <path
     id="path959"
     style="fill:none;stroke-width:0.137964"
     d="M 69.439453 2.0234375 L 57.919922 2.1699219 C 51.583921 2.2504133 41.608014 2.3824518 35.75 2.4628906 L 25.097656 2.609375 L 23.570312 3.4042969 L 22.041016 4.1992188 L 14.818359 11.507812 C 11.21553 15.15248 9.4091585 16.980184 8.4238281 18.054688 C 8.1775729 18.323319 7.9830314 18.543285 7.8242188 18.734375 C 7.6280893 18.970366 7.4975065 19.159611 7.3828125 19.333984 C 7.2231753 19.578302 7.0946774 19.807962 6.9570312 20.082031 L 6.3222656 21.347656 L 6.328125 44.494141 L 6.3359375 67.640625 L 6.984375 68.910156 C 7.1462196 69.227401 7.2681988 69.465573 7.4765625 69.761719 C 7.4765625 69.761719 7.4765625 69.763672 7.4765625 69.763672 C 7.5805969 69.911457 7.7064993 70.072334 7.8691406 70.265625 C 7.8691406 70.265625 7.8691406 70.267578 7.8691406 70.267578 C 8.032036 70.461131 8.2333572 70.685996 8.4863281 70.958984 C 9.4997212 72.052572 11.36197 73.91933 15.080078 77.646484 C 18.704494 81.279718 20.57357 83.149983 21.679688 84.185547 C 22.786221 85.221267 23.128965 85.421974 23.701172 85.716797 C 24.353449 86.052876 25.400175 86.448559 26.050781 86.603516 C 26.188312 86.636272 26.317305 86.664201 26.470703 86.689453 C 26.575468 86.707085 26.727445 86.722021 26.869141 86.736328 C 26.929651 86.742398 26.967366 86.750351 27.037109 86.755859 C 27.061651 86.757799 27.071737 86.759849 27.097656 86.761719 C 27.563923 86.795347 28.428417 86.814741 29.599609 86.828125 C 29.846147 86.83092 30.389195 86.83196 30.679688 86.833984 C 33.695465 86.853153 38.83534 86.839523 49.011719 86.802734 L 70.798828 86.724609 L 71.998047 86.287109 L 73.195312 85.851562 L 81.15625 77.964844 L 89.117188 70.076172 L 88.951172 68.375 C 88.912887 67.985109 88.880443 67.678294 88.845703 67.423828 C 88.845703 67.423828 88.845703 67.421875 88.845703 67.421875 C 88.813788 67.188361 88.776836 67.004673 88.734375 66.833984 C 88.724113 66.792777 88.710565 66.748332 88.699219 66.708984 C 88.671724 66.614195 88.631361 66.506963 88.595703 66.416016 C 88.508296 66.194918 88.402085 65.968884 88.240234 65.669922 C 88.074772 65.364287 87.953312 65.164329 87.833984 64.996094 C 87.785524 64.928303 87.72677 64.850053 87.675781 64.794922 C 87.651213 64.768538 87.621858 64.737326 87.595703 64.712891 C 87.5024 64.625781 87.401431 64.543355 87.269531 64.462891 C 87.269135 64.462649 87.267975 64.463132 87.267578 64.462891 C 87.120223 64.373102 86.940214 64.279236 86.707031 64.160156 C 86.420255 64.013709 86.194958 63.915799 85.970703 63.833984 C 85.90781 63.811244 85.820546 63.784917 85.755859 63.765625 C 85.520553 63.696289 85.270306 63.637513 84.921875 63.591797 C 84.921356 63.591729 84.920442 63.591865 84.919922 63.591797 C 84.654073 63.55697 84.335625 63.52456 83.933594 63.486328 L 82.148438 63.316406 L 79.794922 65.501953 C 78.500405 66.703678 76.389995 68.67976 75.103516 69.894531 C 72.854528 72.018161 72.708926 72.127688 71.357422 72.734375 L 69.953125 73.365234 L 54.630859 73.365234 L 39.310547 73.365234 L 37.888672 72.863281 C 36.783098 72.472364 36.082971 72.09958 34.742188 71.189453 C 34.332487 70.911349 34.018012 70.695932 33.765625 70.511719 C 33.513264 70.327514 33.323836 70.173325 33.164062 70.021484 C 33.004289 69.869644 32.874122 69.720073 32.742188 69.539062 C 32.610227 69.358045 32.475487 69.146715 32.306641 68.875 L 31.595703 67.730469 L 31.433594 56.855469 L 31.271484 45.980469 L 30.431641 44.189453 L 29.591797 42.398438 L 25.578125 38.142578 C 23.610971 36.055857 22.604925 34.984056 21.984375 34.236328 C 21.363825 33.488601 21.128773 33.064947 20.707031 32.275391 L 19.845703 30.666016 L 19.84375 26.115234 C 19.843167 24.85159 19.847046 23.9637 19.867188 23.181641 C 19.881177 22.615366 19.899466 22.099128 19.945312 21.703125 C 20.017751 21.077494 20.141236 20.624134 20.351562 20.208984 C 20.351562 20.208984 20.351562 20.207031 20.351562 20.207031 C 20.456482 19.999928 20.583791 19.803293 20.736328 19.599609 C 20.736328 19.599609 20.736328 19.597656 20.736328 19.597656 C 20.889024 19.393997 21.069924 19.184179 21.279297 18.951172 C 21.279579 18.950858 21.279015 18.949533 21.279297 18.949219 C 21.489149 18.715718 21.728703 18.459633 22.003906 18.164062 C 22.537433 17.591053 22.964581 17.163292 23.341797 16.832031 C 23.719013 16.50077 24.046296 16.266009 24.378906 16.078125 L 25.291016 15.5625 L 48.376953 15.560547 L 71.460938 15.558594 L 72.427734 16.314453 C 72.693701 16.522558 73.425938 17.169712 74.392578 18.044922 C 75.359697 18.9207 76.560387 20.024104 77.761719 21.144531 L 82.126953 25.216797 L 82.787109 25.216797 C 82.968752 25.216797 83.313792 25.177749 83.722656 25.115234 C 84.131535 25.052521 84.604267 24.965944 85.042969 24.871094 C 85.920374 24.681394 86.657811 24.525391 86.681641 24.525391 C 86.70547 24.525391 87.159316 24.045102 87.689453 23.457031 L 88.652344 22.388672 L 88.873047 20.693359 C 88.981156 19.858103 89.034513 19.43199 89.025391 19.140625 C 89.020852 18.995688 88.999556 18.883498 88.962891 18.771484 C 88.962727 18.770991 88.963054 18.770025 88.962891 18.769531 C 88.925864 18.656937 88.872724 18.544564 88.800781 18.396484 C 88.587866 17.958243 86.508625 15.858654 81.121094 10.640625 C 77.05808 6.7054404 73.542689 3.3688068 73.310547 3.2246094 C 73.078405 3.080412 72.112566 2.7521012 71.164062 2.4941406 L 69.439453 2.0234375 z " />
  <path
     style="fill:#c8b7b7"
     d="m 25.909301,86.704095 c -0.877945,-0.209449 -1.708652,-0.528684 -2.504277,-0.96238 -1.140252,-0.621551 -1.500693,-0.96225 -8.532036,-8.064708 L 7.5314986,70.261268 6.8575039,68.918625 6.1835092,67.575982 V 44.462194 21.348407 L 6.9321905,19.86759 7.6808717,18.386775 14.899616,11.187011 22.11836,3.9872477 23.566983,3.2317546 25.015606,2.4762615 36.397642,2.3248329 c 6.26012,-0.083286 16.227799,-0.2190871 22.150397,-0.3017808 l 10.76836,-0.1503522 1.717389,0.4488809 c 0.944564,0.2468845 1.934683,0.5589839 2.200263,0.6935543 0.265581,0.1345704 3.820052,3.4799126 7.898825,7.4340939 5.600653,5.429574 7.497531,7.350411 7.749225,7.847107 l 0.333276,0.657686 -0.230183,1.739907 -0.230184,1.739906 -0.93645,1.094544 -0.936449,1.094542 -1.753851,0.367475 c -0.964617,0.202111 -2.051386,0.366596 -2.415044,0.36552 l -0.661195,-0.002 -4.374494,-4.086092 c -2.405971,-2.247306 -4.814607,-4.42024 -5.352524,-4.828698 l -0.97803,-0.742651 H 48.419282 25.491592 l -0.927813,0.469394 c -0.747208,0.378023 -1.217153,0.779362 -2.414213,2.061763 -2.212316,2.370038 -2.169649,2.214707 -2.169649,7.898798 v 4.4912 l 0.822899,1.54535 c 0.798,1.498588 0.944567,1.674654 4.843658,5.818466 l 4.020759,4.273114 0.861038,1.801364 0.861038,1.801364 0.16651,10.886883 0.166512,10.886885 0.704548,1.148884 c 0.668622,1.090298 0.789586,1.206867 2.372147,2.285944 1.298878,0.885647 1.987901,1.250612 3.116221,1.650615 l 1.448623,0.513555 15.278657,-0.0012 15.278655,-0.0012 1.413368,-0.635218 c 1.376954,-0.618853 1.477391,-0.696214 3.898351,-3.002665 2.269467,-2.162125 5.710776,-5.371352 6.556471,-6.114302 0.33953,-0.29828 0.364227,-0.299681 2.212504,-0.125638 1.732165,0.163109 1.942658,0.21464 2.872339,0.703174 0.969268,0.509335 1.020803,0.56258 1.523679,1.574261 0.465079,0.935638 0.538197,1.230664 0.68691,2.771646 l 0.166427,1.724551 -7.978919,7.946164 -7.978919,7.946163 -1.305839,0.425744 -1.305838,0.425742 -21.729342,0.07519 -21.729343,0.07519 -1.31373,-0.31341 z"
     id="path968" />
  <path
     style="fill:#c8b7b7;stroke-width:0.137964"
     d="M 46.4785,66.248987 45.45325,65.899811 41.46434,62.015427 C 37.940031,58.58347 37.420699,58.02236 37.005519,57.197923 l -0.469912,-0.93312 V 44.461986 32.659169 l 0.472845,-0.927814 c 0.40283,-0.79043 0.95951,-1.408197 3.759521,-4.17207 4.521316,-4.462963 4.618099,-4.550143 5.233208,-4.713986 0.322429,-0.08588 5.079879,-0.211304 11.912288,-0.31404 l 11.375466,-0.17105 1.176653,0.323729 1.176653,0.32373 1.589199,1.552118 c 0.874059,0.853664 2.660144,2.607071 3.969079,3.896458 l 2.37988,2.344341 v 1.040922 1.040922 l -0.72865,0.719598 -0.728649,0.719599 H 76.928202 75.733307 L 75.070026,33.550387 C 74.705222,33.126206 73.529771,32.039739 72.457911,31.136016 L 70.509076,29.492883 H 58.408414 46.307753 l -0.830222,0.652259 c -0.635764,0.499485 -0.940022,0.870294 -1.299007,1.583143 l -0.468785,0.930884 v 2.283232 2.283233 l 0.580768,0.927876 c 0.319422,0.510332 1.452452,1.873715 2.517844,3.02974 1.692167,1.836121 2.001488,2.246034 2.446534,3.242156 l 0.509458,1.140292 0.0079,5.470572 0.0079,5.470573 0.788677,0.944757 c 0.66857,0.800882 0.957461,1.02399 1.897006,1.465041 l 1.108329,0.520283 8.178958,-0.0029 8.178959,-0.0029 0.662087,-0.335505 c 0.40299,-0.20421 1.558911,-1.203022 2.953808,-2.552336 l 2.291721,-2.21683 h 0.993446 c 0.970997,0 1.013119,0.01481 1.864051,0.655329 l 0.870604,0.65533 0.0063,1.243949 0.0063,1.243949 -3.978357,3.884028 -3.978357,3.884027 -1.298769,0.355997 -1.298769,0.355997 -10.761198,-0.0034 -10.761198,-0.0034 -1.02525,-0.349177 z"
     id="path970" />
</svg>
