<?xml version="1.0" encoding="utf-8"?>
<svg viewBox="0 0 2000 1400" xmlns="http://www.w3.org/2000/svg">
  <defs>
    <clipPath id="_clipPath_8TWIgR1z3pxinjWBiigzcEIrVJKv9Gq4">
      <rect width="500" height="500"/>
    </clipPath>
  </defs>
  <path d="M 58.984 1393.77 L 592.317 1393.77 L 592.317 304.103 C 592.317 252.77 566.65 227.103 515.317 227.103 L 135.984 227.103 C 84.651 227.103 58.984 252.77 58.984 304.103 L 58.984 1393.77 Z M 725.651 1393.77 L 1258.984 1393.77 L 1258.984 770.77 C 1258.984 719.437 1233.317 693.77 1181.984 693.77 L 802.651 693.77 C 751.318 693.77 725.651 719.437 725.651 770.77 L 725.651 1393.77 Z M 1392.317 1393.77 L 1925.651 1393.77 L 1925.651 1237.437 C 1925.651 1186.104 1899.984 1160.437 1848.651 1160.437 L 1469.317 1160.437 C 1417.984 1160.437 1392.317 1186.104 1392.317 1237.437 L 1392.317 1393.77 Z" fill="#5d87bf"/>
  <g clip-path="url(#_clipPath_8TWIgR1z3pxinjWBiigzcEIrVJKv9Gq4)" transform="matrix(1, 0, 0, 1, 72.984375, 437.53186)">
    <path d=" M 318.422 453.543 L 463.705 49.541 C 466.168 42.689 462.285 37.693 455.037 38.392 L 340.786 49.398 C 333.539 50.097 325.71 56.246 323.316 63.121 L 188.843 449.216 C 186.447 456.091 190.414 461.673 197.695 461.673 L 308.901 461.673 C 312.541 461.673 316.497 458.893 317.729 455.466 L 318.422 453.543 Z " style="fill: rgb(255, 255, 255);"/>
    <defs>
      <filter id="Hmac7mZraFWHw0G84Yxj4QuzeTFp0E7Y" x="-200%" y="-200%" width="400%" height="400%" filterUnits="objectBoundingBox" color-interpolation-filters="sRGB">
        <feGaussianBlur xmlns="http://www.w3.org/2000/svg" in="SourceGraphic" stdDeviation="6.440413594258542"/>
        <feOffset xmlns="http://www.w3.org/2000/svg" dx="0" dy="0" result="pf_100_offsetBlur"/>
        <feFlood xmlns="http://www.w3.org/2000/svg" flood-color="#000000" flood-opacity="0.65"/>
        <feComposite xmlns="http://www.w3.org/2000/svg" in2="pf_100_offsetBlur" operator="in" result="pf_100_dropShadow"/>
        <feBlend xmlns="http://www.w3.org/2000/svg" in="SourceGraphic" in2="pf_100_dropShadow" mode="normal"/>
      </filter>
    </defs>
    <g filter="url(#Hmac7mZraFWHw0G84Yxj4QuzeTFp0E7Y)">
      <path d=" M 301.848 455.466 L 241.359 280.725 L 250 275.324 L 311.57 453.543 L 301.848 455.466 Z " style="fill: rgb(255, 255, 255);"/>
    </g>
    <path d=" M 44.963 38.392 L 159.214 49.398 C 166.461 50.097 174.298 56.243 176.704 63.115 L 314.022 455.448 C 315.224 458.885 313.245 461.673 309.604 461.673 L 197.695 461.673 C 190.414 461.673 182.502 456.111 180.038 449.259 L 36.295 49.541 C 33.832 42.689 37.715 37.693 44.963 38.392 Z " style="fill: rgb(255, 255, 255);"/>
  </g>
  <text style="fill: rgb(255, 255, 255); font-family: Arial, sans-serif; font-size: 47.4px; white-space: pre;" transform="matrix(1.589051, 0, 0, 1.61146, -133.219009, -1871.44397)" x="134.482" y="1288.59">V : 15.16 ops/s</text>
  <text style="fill: rgb(255, 255, 255); font-family: Arial, sans-serif; font-size: 47.4px; white-space: pre;" x="808.147" y="1301.77" transform="matrix(1.461529, 0, 0, 1.816377, -449.386475, -1691.211182)">Rust : 9.11 ops/s</text>
  <text style="fill: rgb(255, 255, 255); font-family: Arial, sans-serif; font-size: 47.4px; white-space: pre;" transform="matrix(1.420534, 0, 0, 1.86654, 226.796158, -1559.187622)"><tspan x="849.954" y="1445.82">Go : 3.28 ops/s</tspan><tspan x="849.954" dy="1em">​</tspan></text>
</svg>